# xmcd
#
# Track frame offsets: 
#        150
#        12197
#        24297
#        34800
#        46247
#        57352
#        70722
#        83087
#        95637
#        107652
#        120042
#        132110
#        143705
#        155322
#        167880
#        179632
#        193142
#        205780
#        218847
#        229927
#        242040
#        254345
#        266357
#
# Disc length: 3711 seconds
#
# Revision: 4
# Processed by: cddbd v1.5.2PL0 Copyright (c) Steve Scherf et al.
# Submitted via: ExactAudioCopy v1.3
#
DISCID=360e7d17
DTITLE=Lightnin' Hopkins - Blues pioneers, Disc 4
DYEAR=2007
DGENRE=Blues
TTITLE0=Someday baby
TTITLE1=Come back baby
TTITLE2=Lightnin's boogie
TTITLE3=Baby you're not going to make a fool out of me
TTITLE4=Daddy will be home one day
TTITLE5=Moon rise blues
TTITLE6=Howling wolf
TTITLE7=Morning blues
TTITLE8=Have to let you go
TTITLE9=Mama's baby child
TTITLE10=Mistreated blues
TTITLE11=My California
TTITLE12=Honey babe
TTITLE13=So long
TTITLE14=See see rider
TTITLE15=Unpredictable woman (Changing weather blues)
TTITLE16=I just don't care
TTITLE17=Drinkin' woman (Whiskey headed woman)
TTITLE18=Abilene
TTITLE19=Shotgun
TTITLE20=Rollin' and rollin' (Rollin' blues)
TTITLE21=Tell it like it is
TTITLE22=Miss Loretta
EXTD=
EXTT0=
EXTT1=
EXTT2=
EXTT3=
EXTT4=
EXTT5=
EXTT6=
EXTT7=
EXTT8=
EXTT9=
EXTT10=
EXTT11=
EXTT12=
EXTT13=
EXTT14=
EXTT15=
EXTT16=
EXTT17=
EXTT18=
EXTT19=
EXTT20=
EXTT21=
EXTT22=
PLAYORDER=
